<svg width="360" height="292" viewBox="0 0 360 292" fill="none" xmlns="http://www.w3.org/2000/svg">
<g filter="url(#filter0_d_69_2688)">
<g filter="url(#filter1_f_69_2688)">
<path fill-rule="evenodd" clip-rule="evenodd" d="M-414.989 5.01909L-398.73 35.2765C-382.471 65.5339 -347.915 123.04 -315.365 147.338C-282.816 171.635 -250.234 159.716 -215.606 135.734C-183.017 114.76 -150.414 78.6959 -117.837 72.8126C-83.2255 66.9389 -50.6759 91.2366 -18.1395 130.625C14.3941 173.031 48.9475 233.555 81.5184 233.708C114.089 233.861 146.714 173.652 181.357 131.561C213.963 92.4791 246.555 68.4873 279.142 50.5317C313.765 32.5856 346.346 20.6662 362.637 14.7065L378.928 8.74675L378.678 292.447L362.392 292.371C346.107 292.294 313.536 292.142 278.929 291.979C246.358 291.826 213.787 291.673 181.216 291.52C146.61 291.358 114.039 291.205 81.4678 291.052C48.8968 290.899 14.2902 290.736 -18.2807 290.584C-50.8517 290.431 -83.4226 290.278 -118.029 290.115C-150.6 289.962 -183.171 289.809 -215.742 289.656C-250.349 289.494 -282.92 289.341 -315.491 289.188C-348.062 289.035 -382.668 288.873 -398.954 288.796L-415.239 288.72L-414.989 5.01909Z" fill="url(#paint0_linear_69_2688)"/>
<path fill-rule="evenodd" clip-rule="evenodd" d="M-414.989 5.01909L-398.73 35.2765C-382.471 65.5339 -347.915 123.04 -315.365 147.338C-282.816 171.635 -250.234 159.716 -215.606 135.734C-183.017 114.76 -150.414 78.6959 -117.837 72.8126C-83.2255 66.9389 -50.6759 91.2366 -18.1395 130.625C14.3941 173.031 48.9475 233.555 81.5184 233.708C114.089 233.861 146.714 173.652 181.357 131.561C213.963 92.4791 246.555 68.4873 279.142 50.5317C313.765 32.5856 346.346 20.6662 362.637 14.7065L378.928 8.74675L378.678 292.447L362.392 292.371C346.107 292.294 313.536 292.142 278.929 291.979C246.358 291.826 213.787 291.673 181.216 291.52C146.61 291.358 114.039 291.205 81.4678 291.052C48.8968 290.899 14.2902 290.736 -18.2807 290.584C-50.8517 290.431 -83.4226 290.278 -118.029 290.115C-150.6 289.962 -183.171 289.809 -215.742 289.656C-250.349 289.494 -282.92 289.341 -315.491 289.188C-348.062 289.035 -382.668 288.873 -398.954 288.796L-415.239 288.72L-414.989 5.01909Z" stroke="black"/>
</g>
<g filter="url(#filter2_d_69_2688)">
<path fill-rule="evenodd" clip-rule="evenodd" d="M-399.994 65.5158L-383.73 89.4551C-367.465 113.394 -332.899 158.896 -300.345 178.14C-267.791 197.383 -235.211 187.991 -200.588 169.063C-168.002 152.512 -135.406 124.029 -102.831 119.41C-68.2198 114.8 -35.6657 134.043 -3.12212 165.217C29.4193 198.778 63.9838 246.667 96.5548 246.82C129.126 246.972 161.739 199.4 196.375 166.154C228.973 135.285 261.561 116.348 294.145 102.183C328.764 88.0279 361.343 78.6357 377.633 73.9395L393.923 69.2434L393.725 293.554L377.439 293.478C361.154 293.402 328.583 293.249 293.976 293.086C261.405 292.933 228.834 292.78 196.263 292.627C161.657 292.465 129.086 292.312 96.5148 292.159C63.9438 292.006 29.3372 291.844 -3.23376 291.691C-35.8047 291.538 -68.3757 291.385 -102.982 291.222C-135.553 291.069 -168.124 290.916 -200.695 290.764C-235.302 290.601 -267.873 290.448 -300.444 290.295C-333.015 290.142 -367.621 289.98 -383.907 289.903L-400.192 289.827L-399.994 65.5158Z" fill="#025489"/>
<path fill-rule="evenodd" clip-rule="evenodd" d="M-399.994 65.5158L-383.73 89.4551C-367.465 113.394 -332.899 158.896 -300.345 178.14C-267.791 197.383 -235.211 187.991 -200.588 169.063C-168.002 152.512 -135.406 124.029 -102.831 119.41C-68.2198 114.8 -35.6657 134.043 -3.12212 165.217C29.4193 198.778 63.9838 246.667 96.5548 246.82C129.126 246.972 161.739 199.4 196.375 166.154C228.973 135.285 261.561 116.348 294.145 102.183C328.764 88.0279 361.343 78.6357 377.633 73.9395L393.923 69.2434L393.725 293.554L377.439 293.478C361.154 293.402 328.583 293.249 293.976 293.086C261.405 292.933 228.834 292.78 196.263 292.627C161.657 292.465 129.086 292.312 96.5148 292.159C63.9438 292.006 29.3372 291.844 -3.23376 291.691C-35.8047 291.538 -68.3757 291.385 -102.982 291.222C-135.553 291.069 -168.124 290.916 -200.695 290.764C-235.302 290.601 -267.873 290.448 -300.444 290.295C-333.015 290.142 -367.621 289.98 -383.907 289.903L-400.192 289.827L-399.994 65.5158Z" stroke="black"/>
</g>
</g>
<defs>
<filter id="filter0_d_69_2688" x="-419.239" y="5.01909" width="817.162" height="296.535" filterUnits="userSpaceOnUse" color-interpolation-filters="sRGB">
<feFlood flood-opacity="0" result="BackgroundImageFix"/>
<feColorMatrix in="SourceAlpha" type="matrix" values="0 0 0 0 0 0 0 0 0 0 0 0 0 0 0 0 0 0 127 0" result="hardAlpha"/>
<feOffset dy="4"/>
<feGaussianBlur stdDeviation="2"/>
<feComposite in2="hardAlpha" operator="out"/>
<feColorMatrix type="matrix" values="0 0 0 0 0 0 0 0 0 0 0 0 0 0 0 0 0 0 0.25 0"/>
<feBlend mode="normal" in2="BackgroundImageFix" result="effect1_dropShadow_69_2688"/>
<feBlend mode="normal" in="SourceGraphic" in2="effect1_dropShadow_69_2688" result="shape"/>
</filter>
<filter id="filter1_f_69_2688" x="-419.239" y="1.01909" width="802.167" height="295.428" filterUnits="userSpaceOnUse" color-interpolation-filters="sRGB">
<feFlood flood-opacity="0" result="BackgroundImageFix"/>
<feBlend mode="normal" in="SourceGraphic" in2="BackgroundImageFix" result="shape"/>
<feGaussianBlur stdDeviation="2" result="effect1_foregroundBlur_69_2688"/>
</filter>
<filter id="filter2_d_69_2688" x="-404.192" y="65.5158" width="802.115" height="236.039" filterUnits="userSpaceOnUse" color-interpolation-filters="sRGB">
<feFlood flood-opacity="0" result="BackgroundImageFix"/>
<feColorMatrix in="SourceAlpha" type="matrix" values="0 0 0 0 0 0 0 0 0 0 0 0 0 0 0 0 0 0 127 0" result="hardAlpha"/>
<feOffset dy="4"/>
<feGaussianBlur stdDeviation="2"/>
<feComposite in2="hardAlpha" operator="out"/>
<feColorMatrix type="matrix" values="0 0 0 0 0 0 0 0 0 0 0 0 0 0 0 0 0 0 0.25 0"/>
<feBlend mode="normal" in2="BackgroundImageFix" result="effect1_dropShadow_69_2688"/>
<feBlend mode="normal" in="SourceGraphic" in2="effect1_dropShadow_69_2688" result="shape"/>
</filter>
<linearGradient id="paint0_linear_69_2688" x1="-83.4174" y1="-17.0498" x2="12.5768" y2="280.633" gradientUnits="userSpaceOnUse">
<stop stop-color="#D4DEFF"/>
<stop offset="0.24" stop-color="#A2B8FF" stop-opacity="0.875"/>
<stop offset="1" stop-color="#CCD9FF" stop-opacity="0"/>
</linearGradient>
</defs>
</svg>
